<svg width="800" height="600" viewBox="0 0 800 600" fill="none" xmlns="http://www.w3.org/2000/svg">
<g id="undraw_Ride_a_bicycle_2yok 1">
<g clip-path="url(#clip0)">
<g id="Vector" opacity="0.1" filter="url(#filter0_d)">
<path d="M158.631 88.2285C154.486 93.3114 152.89 100.458 151.105 107.177C136.734 161.323 101.322 204.876 60.9927 235.985C43.9142 249.163 23.1219 266.834 26.8583 290.46C28.8702 303.149 37.6969 312.489 44.2545 322.823C58.0127 344.462 62.4752 373.874 55.9176 399.778C48.4599 429.251 27.6146 456.753 34.0664 486.555C38.0448 504.899 51.5534 517.954 64.54 529.175C84.8003 546.668 105.706 563.056 127.257 578.338C141.704 588.58 157.073 598.547 173.909 599.847C188.734 600.993 203.256 595.299 217.332 589.681C229.63 584.766 242.239 579.653 252.17 569.808C258.652 563.379 263.818 555.086 271.018 549.828C287.93 537.476 309.653 545.303 329.046 550.592C374.806 563.005 423.78 558.472 467.323 537.797C534.117 506.076 585.028 439.463 650.362 403.722C678.453 388.351 709.01 378.812 735.021 359.015C749.675 347.743 762.269 333.972 772.234 318.321C791.899 287.663 802.534 248.574 799.463 210.311C796.392 172.047 779.185 135.175 752.16 113.574C723.23 90.4528 686.69 86.1342 653.773 72.2536C619.783 57.9143 589.543 33.2717 555.878 17.8853C528.637 5.46969 498.99 -0.625098 469.114 0.0481226C439.238 0.721343 409.89 8.14549 383.224 21.7758C346.586 40.5024 309.449 84.1927 268.643 87.51C239.569 89.8031 181.337 60.3908 158.631 88.2285Z" fill="url(#paint0_linear)"/>
</g>
<g id="left-wheel">
<path id="Vector_2" d="M193.045 548.032L188.303 473.171L188.205 473.011L183.424 474.692L161.43 539.548L126.448 514.484L182.169 473.66L182.222 473.5L182.539 473.385L186.132 470.748L127.711 437.644L113.401 453.543L115.67 468.448L182.85 469.686V471.215L114.414 469.976L111.828 453.054L131.417 431.3L160.726 396.752L161.248 398.181L167.45 391.302L190.489 395.475V394.55L192.002 394.596V395.75L226.31 401.957L194.324 466.628L189.657 470.045V470.427V470.855L263.629 444.806L254.847 514.523L192.07 474.111L189.861 472.858L226.877 533.15L193.045 548.032ZM190.02 475.923L194.445 545.769L224.737 532.485L190.02 475.923ZM129.073 514.469L160.681 537.117L181.36 476.168L129.073 514.469ZM191.336 471.925L192.917 472.82L253.69 511.954L261.859 447.084L191.336 471.925ZM185.966 466.422L187.864 469.518L188.197 469.273L190.466 397.019L167.972 392.953L161.8 399.832L185.966 466.422ZM128.921 436.567L185.527 468.669L184.544 467.041L160.658 401.101L132.529 432.34L128.921 436.567ZM192.002 397.287L189.732 468.157L193.151 465.65L224.094 403.111L192.002 397.287Z" fill="#535461"/>
<path id="Vector_3" d="M276.01 450.929C272.977 437.308 266.836 424.593 258.077 413.797C254.826 409.784 251.24 406.061 247.359 402.668C232.439 389.65 213.664 382.007 193.981 380.938C174.297 379.869 154.82 385.435 138.606 396.763C122.391 408.09 110.357 424.538 104.393 443.524C98.4281 462.51 98.8705 482.96 105.65 501.665C112.43 520.369 125.164 536.27 141.853 546.87C158.542 557.47 178.241 562.171 197.86 560.234C217.478 558.297 235.904 549.832 250.247 536.168C264.59 522.503 274.038 504.413 277.107 484.736C277.821 480.103 278.18 475.422 278.181 470.733C278.186 464.071 277.458 457.428 276.01 450.929ZM188.885 538.332C175.095 538.318 161.644 534.011 150.361 525.999C139.079 517.987 130.511 506.657 125.825 493.551C121.138 480.444 120.559 466.198 124.167 452.747C127.776 439.297 135.395 427.296 145.99 418.376C156.586 409.456 169.642 404.051 183.385 402.894C197.127 401.737 210.889 404.886 222.798 411.912C234.707 418.938 244.186 429.5 249.946 442.161C255.706 454.823 257.468 468.971 254.991 482.68C252.155 498.306 243.986 512.432 231.908 522.6C219.83 532.769 204.606 538.335 188.885 538.332V538.332Z" fill="#535461"/>
<path id="Vector_4" d="M188.885 480.219C194.236 480.219 198.574 475.835 198.574 470.427C198.574 465.02 194.236 460.636 188.885 460.636C183.534 460.636 179.196 465.02 179.196 470.427C179.196 475.835 183.534 480.219 188.885 480.219Z" fill="#535461"/>
</g>
<g id="right-wheel">
<path id="Vector_5" d="M515.398 548.338L510.663 473.508L510.564 473.347L505.784 475.029L483.782 539.853L448.8 514.783L504.536 473.959L504.589 473.798L504.907 473.683L508.5 471.046L450.079 437.942L435.761 453.841L438.03 468.746L505.194 469.953V471.482L436.759 470.244L434.187 453.344L453.77 431.598L483.056 397.073L483.578 398.502L489.78 391.623L512.879 395.804V394.879L514.392 394.925V396.079L548.7 402.285L516.683 466.988L512.017 470.404V470.787V471.215L585.996 445.165L577.215 514.882L514.437 474.471L512.228 473.217L549.245 533.517L515.398 548.338ZM512.372 476.229L516.797 546.075L547.089 532.791L512.372 476.229ZM451.432 514.783L483.041 537.43L503.719 476.481L451.432 514.783ZM513.696 472.239L515.277 473.133L576.05 512.268L584.219 447.397L513.696 472.239ZM508.326 466.735L510.224 469.831L510.557 469.586L512.826 397.332L490.332 393.251L484.16 400.13L508.326 466.735ZM451.304 436.888L507.91 468.99L506.926 467.362L483.041 401.422L454.904 432.668L451.304 436.888ZM514.361 397.608L512.092 468.455L515.511 465.948L546.454 403.409L514.361 397.608Z" fill="#535461"/>
<path id="Vector_6" d="M511.548 381.113C503.52 381.104 495.528 382.194 487.791 384.354C483.8 385.466 479.892 386.863 476.097 388.535C455.88 397.392 439.631 413.511 430.494 433.775C421.358 454.039 419.983 477.007 426.635 498.237C433.287 519.466 447.495 537.448 466.508 548.703C485.522 559.959 507.99 563.688 529.568 559.17C551.145 554.651 570.297 542.207 583.319 524.243C596.342 506.279 602.308 484.073 600.066 461.92C597.823 439.767 587.53 419.242 571.177 404.316C554.825 389.389 533.576 381.122 511.54 381.113H511.548ZM511.245 538.638C495.906 538.632 481.029 533.323 469.088 523.593C457.146 513.864 448.857 500.299 445.597 485.151C442.337 470.003 444.303 454.184 451.168 440.322C458.033 426.459 469.384 415.386 483.336 408.943C486.884 407.301 490.569 405.979 494.348 404.991C503.585 402.568 513.226 402.161 522.631 403.797C532.036 405.433 540.988 409.074 548.892 414.478C556.795 419.882 563.469 426.925 568.47 435.139C573.47 443.353 576.683 452.549 577.892 462.115C579.102 471.681 578.283 481.397 575.487 490.618C572.692 499.839 567.986 508.352 561.681 515.592C555.377 522.831 547.619 528.631 538.924 532.604C530.229 536.578 520.796 538.635 511.253 538.638H511.245Z" fill="#535461"/>
<path id="Vector_7" d="M511.245 480.524C516.596 480.524 520.934 476.141 520.934 470.733C520.934 465.325 516.596 460.942 511.245 460.942C505.894 460.942 501.556 465.325 501.556 470.733C501.556 476.141 505.894 480.524 511.245 480.524Z" fill="#535461"/>
</g>
<g id="man-on-the-bike">
<path id="Vector_8" d="M292.71 423.682L260.409 391.469L250.315 401.806L282.616 434.019L292.71 423.682Z" fill="#535461"/>
<path id="Vector_9" opacity="0.1" d="M292.71 423.682L260.409 391.469L250.315 401.806L282.616 434.019L292.71 423.682Z" fill="#535461"/>
<path id="Vector_10" d="M268.114 376.053C268.114 376.053 286.864 366.055 294.11 359.619C298.472 355.763 303.162 352.302 308.125 349.278L331.648 334.809L380.811 330.987L383.08 339.395C383.08 339.395 386.862 351.624 349.044 362.325C311.226 373.026 292.317 389.842 292.317 389.842C292.317 389.842 268.114 398.219 268.114 376.053Z" fill="#DB8B8B"/>
<path id="Vector_11" opacity="0.1" d="M294.322 388.183C292.983 389.215 292.317 389.811 292.317 389.811C292.317 389.811 268.114 398.219 268.114 376.053C268.114 376.053 269.286 375.426 271.139 374.379C273.012 377.46 275.634 380.004 278.756 381.769C281.879 383.534 285.397 384.461 288.974 384.461H291.538L294.322 388.183Z" fill="black"/>
<path id="Vector_12" opacity="0.05" d="M382.369 343.614C380.267 348.116 373.013 355.515 349.044 362.295C318.328 370.985 300.085 383.696 294.322 388.183C292.983 389.215 292.317 389.811 292.317 389.811C292.317 389.811 268.114 398.219 268.114 376.053C268.114 376.053 269.286 375.426 271.139 374.379C276.759 371.268 288.657 364.442 294.087 359.589C298.448 355.731 303.138 352.27 308.103 349.247L331.625 334.778L340.384 334.098L380.789 330.956L383.058 339.364C383.058 339.364 383.587 341.007 382.369 343.614Z" fill="black"/>
<path id="Vector_13" d="M268.492 371.085L248.449 384.461L307.142 434.144C307.142 434.144 315.764 428.793 311.226 422.678C311.226 422.678 296.099 409.684 295.343 391.34L290.805 385.225H288.241C283.905 385.226 279.676 383.865 276.138 381.332C272.601 378.799 269.929 375.218 268.492 371.085V371.085Z" fill="#808080" fill-opacity="0.1"/>
<path id="Vector_14" opacity="0.1" d="M382.369 343.614C370.268 337.705 340.724 337.071 340.724 337.071L340.407 334.098L380.811 330.956L383.08 339.364C383.08 339.364 383.587 341.007 382.369 343.614Z" fill="black"/>
<path id="Vector_15" d="M340.724 335.542C340.724 335.542 376.273 336.307 385.349 343.95L380.811 251.464H331.648L340.724 335.542Z" fill="#ABB1D1"/>
<path id="Vector_16" opacity="0.05" d="M340.724 335.16C340.724 335.16 376.273 335.924 385.349 343.568L380.811 251.082H331.648L340.724 335.16Z" fill="black"/>
<path id="Vector_17" d="M369.284 278.95C369.284 278.95 458.27 275.892 460.085 287.518C461.9 299.144 371.1 294.244 371.1 294.244C371.1 294.244 363.839 286.899 369.284 278.95Z" fill="#535461"/>
<path id="Vector_18" opacity="0.05" d="M369.284 278.95C369.284 278.95 458.27 275.892 460.085 287.518C461.9 299.144 371.1 294.244 371.1 294.244C371.1 294.244 363.839 286.899 369.284 278.95Z" fill="black"/>
<path id="Vector_19" d="M297.249 325.445H281.509V463.701H297.249V325.445Z" fill="#535461"/>
<path id="Vector_20" opacity="0.1" d="M297.249 325.438V336.085C292.015 336.773 286.66 337.209 281.509 337.377V325.438H297.249Z" fill="black"/>
<path id="Vector_21" d="M296.069 313.98C293.86 313.807 291.664 313.509 289.489 313.086C280.957 311.435 259.446 307.972 253.66 313.85C246.399 321.188 248.819 334.037 268.189 335.871C287.56 337.705 320.855 332.814 327.518 325.468C327.518 325.438 315.469 315.486 296.069 313.98Z" fill="#535461"/>
<path id="Vector_22" d="M293.013 363.372L458.277 311.374L463.723 324.222L294.223 382.947L293.013 363.372Z" fill="#535461"/>
<path id="Vector_23" d="M342.048 445.349L461.303 326.668L467.959 336.452L354.15 456.356L342.048 445.349Z" fill="#535461"/>
<path id="Vector_24" opacity="0.1" d="M494.341 404.991C490.562 405.979 486.877 407.301 483.328 408.943L476.097 388.527C479.892 386.855 483.8 385.458 487.791 384.346L494.341 404.991Z" fill="black"/>
<path id="Vector_25" d="M514.573 464.924L506.102 469.816L447 302.935L444.353 295.467L458.277 287.51L461.764 298.502L514.573 464.924Z" fill="#535461"/>
<path id="Vector_26" opacity="0.1" d="M461.764 298.502L447 302.935L444.353 295.467L458.277 287.51L461.764 298.502Z" fill="black"/>
<path id="Vector_27" d="M371.705 311.374L454.639 282.619C454.639 282.619 469.169 284.453 463.716 296.69L380.183 321.769C380.183 321.769 367.477 322.992 371.705 311.374Z" fill="#535461"/>
<path id="Vector_28" opacity="0.1" d="M278.181 470.733C278.18 475.422 277.821 480.103 277.107 484.736C269.846 484.209 262.343 483.444 254.991 482.68C256.624 473.591 256.421 464.262 254.394 455.255C261.556 453.726 268.87 452.266 276.01 450.944C277.457 457.439 278.185 464.076 278.181 470.733V470.733Z" fill="black"/>
<path id="Vector_29" opacity="0.1" d="M297.249 447.436V463.693H281.509V449.935C286.955 448.98 292.249 448.131 297.249 447.436Z" fill="black"/>
<path id="Vector_30" d="M195.549 470.45C195.549 470.45 322.678 436.819 332.964 449.652C343.25 462.486 354.15 479.622 322.095 485.737C290.041 491.852 193.151 475.334 193.151 475.334L195.549 470.45Z" fill="#535461"/>
<path id="Vector_31" opacity="0.1" d="M258.077 413.797L241.921 428.74C239.06 425.028 235.826 421.626 232.27 418.589L247.352 402.668C251.235 406.061 254.823 409.784 258.077 413.797V413.797Z" fill="black"/>
<path id="Vector_32" d="M191.313 463.701L286.35 363.372L289.383 386.616L196.154 472.873L191.313 463.701Z" fill="#535461"/>
<path id="Vector_33" opacity="0.1" d="M190.103 480.219C195.454 480.219 199.792 475.835 199.792 470.427C199.792 465.02 195.454 460.636 190.103 460.636C184.752 460.636 180.414 465.02 180.414 470.427C180.414 475.835 184.752 480.219 190.103 480.219Z" fill="black"/>
<path id="Vector_34" opacity="0.1" d="M510.64 479.301C515.991 479.301 520.329 474.918 520.329 469.51C520.329 464.102 515.991 459.719 510.64 459.719C505.289 459.719 500.951 464.102 500.951 469.51C500.951 474.918 505.289 479.301 510.64 479.301Z" fill="black"/>
<path id="Vector_35" opacity="0.1" d="M339.015 480.219C349.713 480.219 358.385 471.455 358.385 460.644C358.385 449.833 349.713 441.069 339.015 441.069C328.317 441.069 319.645 449.833 319.645 460.644C319.645 471.455 328.317 480.219 339.015 480.219Z" fill="black"/>
<path id="Vector_36" d="M340.233 480.219C350.931 480.219 359.603 471.455 359.603 460.644C359.603 449.833 350.931 441.069 340.233 441.069C329.535 441.069 320.862 449.833 320.862 460.644C320.862 471.455 329.535 480.219 340.233 480.219Z" fill="#535461"/>
<path id="Vector_37" d="M335.061 459.173L335.055 459.178C332.78 460.897 332.315 464.154 334.016 466.453L349.39 487.228C351.091 489.527 354.314 489.997 356.589 488.278L356.595 488.273C358.87 486.554 359.335 483.297 357.634 480.998L342.26 460.223C340.559 457.924 337.336 457.454 335.061 459.173Z" fill="#6C63FF"/>
<path id="Vector_38" d="M427.705 188.787L425.905 211.802C425.698 214.717 425.736 217.645 426.019 220.553C426.253 223.129 426.019 227.639 423.523 234.518C420.318 243.306 418.662 252.593 418.629 261.958V288.153L401.233 285.095C401.233 285.095 401.989 248.406 398.964 242.292C395.938 236.177 401.233 181.908 401.233 181.908L427.705 188.787Z" fill="#DB8B8B"/>
<path id="Vector_39" opacity="0.05" d="M426.813 200.191L425.905 211.802C425.701 214.714 425.741 217.64 426.026 220.546C426.261 223.122 426.026 227.631 423.53 234.518C420.326 243.306 418.669 252.593 418.637 261.958V288.153L401.24 285.095C401.24 285.095 401.997 248.406 398.971 242.292C396.831 237.958 398.858 209.47 400.227 193.213C400.794 186.525 401.24 181.908 401.24 181.908L427.713 188.787L426.813 200.191Z" fill="black"/>
<path id="Vector_40" d="M341.496 364.588L334.953 402.194C334.128 407.215 332.863 412.151 331.171 416.946C327.337 427.54 329.787 442.391 331.648 450.493C332.472 454.07 333.161 456.333 333.161 456.333L313.495 467.034L307.444 462.447V459.39L306.688 391.363C302.15 380.662 303.663 364.611 306.688 358.496C307.548 356.487 308.153 354.376 308.488 352.213C310.001 344.019 310.47 332.508 310.47 332.508C310.47 332.508 322.572 311.87 336.942 325.629C342.237 330.696 344.249 337.323 344.672 343.667C345.414 354.529 341.496 364.588 341.496 364.588Z" fill="#DB8B8B"/>
<path id="Vector_41" opacity="0.1" d="M344.672 343.644C334.182 349.943 315.931 351.724 308.488 352.19C310.001 343.996 310.47 332.485 310.47 332.485C310.47 332.485 322.572 311.847 336.942 325.606C342.237 330.673 344.249 337.3 344.672 343.644Z" fill="black"/>
<path id="Vector_42" d="M370.222 324.841C362.179 329.17 354.579 334.29 347.531 340.128C335.43 350.065 305.175 350.829 305.175 350.829V339.364C305.932 325.606 293.074 310.319 275.677 267.515C264.567 240.182 267.645 224.711 271.321 217.068C273.408 212.749 275.677 210.953 275.677 210.953L370.222 229.298L373.603 239.54L380.811 261.4C380.811 261.4 354.339 262.929 349.801 265.222C345.262 267.515 348.288 288.153 348.288 288.153C343.75 309.554 370.222 324.841 370.222 324.841Z" fill="#ABB1D1"/>
<path id="Vector_43" opacity="0.1" d="M427.705 188.787L426.813 200.191C413.652 204.013 404.258 191.844 404.258 191.844C402.886 192.216 401.537 192.673 400.219 193.213C400.787 186.525 401.233 181.908 401.233 181.908L427.705 188.787Z" fill="black"/>
<path id="Vector_44" opacity="0.1" d="M373.603 239.54C373.248 243.109 373.248 245.349 373.248 245.349C373.248 245.349 355.851 259.872 326.353 237.705C296.855 215.539 270.383 221.654 270.383 221.654C270.383 221.654 270.693 219.881 271.321 217.068C273.408 212.749 275.677 210.953 275.677 210.953L370.222 229.298L373.603 239.54Z" fill="black"/>
<path id="Vector_45" d="M437.901 158.939C435.927 174.494 435.269 194.099 435.269 194.099C417.873 207.858 404.258 190.277 404.258 190.277C387.83 194.734 380.108 209.264 376.47 221.945C374.521 228.804 373.439 235.884 373.248 243.018C373.248 243.018 368.649 246.839 360.178 247.604C352.168 248.284 340.686 246.174 326.353 235.374C296.855 213.208 270.383 219.323 270.383 219.323C270.383 219.323 275.677 188.749 287.779 179.577C299.881 170.404 308.957 158.939 324.084 123.779C339.212 88.6188 370.222 97.0267 370.222 97.0267C370.222 97.0267 371.735 90.1475 399.72 97.0267C406.536 98.8321 412.846 102.21 418.153 106.894C433.121 119.613 440.382 139.341 437.901 158.939Z" fill="white"/>
<path id="Vector_46" d="M409.833 114.263C409.795 115.279 409.712 116.411 409.576 117.672C408.063 131.43 406.55 129.901 389.91 132.959C379.563 134.862 374.186 126.126 371.599 119.246C370.663 116.754 369.956 114.18 369.489 111.557L405.794 105.442C405.794 105.442 410.143 104.212 409.833 114.263Z" fill="#DB8B8B"/>
<path id="Vector_47" opacity="0.05" d="M376.47 221.983C374.521 228.842 373.439 235.922 373.248 243.056C373.248 243.056 368.649 246.878 360.178 247.642C359.939 247.155 359.756 246.642 359.633 246.113C358.12 239.234 346.775 227.004 346.775 227.004C339.212 220.125 337.699 207.896 337.699 207.896L325.219 170.825L321.059 167.385C321.059 167.385 338.455 153.627 353.582 165.092C368.709 176.557 364.171 201.017 364.171 201.017L367.197 209.424C370.336 212.1 373.527 216.816 376.47 221.983Z" fill="black"/>
<path id="Vector_48" d="M323.328 166.621L339.968 207.131C339.968 207.131 341.481 219.361 349.044 226.24C349.044 226.24 360.39 238.47 361.902 245.349C363.415 252.228 384.593 270.572 384.593 270.572C384.593 270.572 404.258 288.917 405.771 295.796C405.771 295.796 423.924 301.147 421.655 311.847C421.655 311.847 435.269 298.089 421.655 285.095C408.04 272.101 389.888 245.349 389.888 245.349C389.888 245.349 379.298 217.068 369.466 208.66L366.44 200.252C366.44 200.252 370.979 175.793 355.851 164.328C340.724 152.862 323.328 166.621 323.328 166.621Z" fill="#DB8B8B"/>
<path id="Vector_49" opacity="0.1" d="M333.161 456.31L313.495 467.011L307.444 462.425V459.367C314.24 458.879 320.842 456.866 326.769 453.474C328.585 452.434 330.294 451.41 331.663 450.508C332.457 454.047 333.161 456.31 333.161 456.31Z" fill="black"/>
<path id="Vector_50" opacity="0.1" d="M355.851 134.518L366.44 176.557C366.44 176.557 333.917 181.908 327.11 176.557C320.303 171.207 307.444 169.678 307.444 169.678C307.444 169.678 321.059 129.932 328.623 125.346C336.186 120.76 355.851 134.518 355.851 134.518Z" fill="black"/>
<path id="Vector_51" d="M355.851 132.989L366.44 175.029C366.44 175.029 333.917 180.379 327.11 175.029C320.303 169.678 307.444 168.149 307.444 168.149C307.444 168.149 321.059 128.403 328.623 123.817C336.186 119.231 355.851 132.989 355.851 132.989Z" fill="white"/>
<path id="Vector_52" opacity="0.1" d="M409.833 113.498C407.714 116.454 405.02 118.939 401.916 120.803C398.811 122.667 395.362 123.869 391.781 124.336C388.2 124.803 384.562 124.524 381.091 123.518C377.62 122.511 374.39 120.797 371.599 118.482C370.663 115.99 369.956 113.416 369.489 110.793L405.794 104.678C405.794 104.678 410.143 103.447 409.833 113.498Z" fill="black"/>
<path id="Vector_53" d="M414.847 97.0649C414.847 104.16 412.058 110.965 407.094 115.982C402.129 120.999 395.396 123.817 388.375 123.817C381.354 123.817 374.62 120.999 369.656 115.982C364.691 110.965 361.902 104.16 361.902 97.0649C361.902 96.6216 361.902 96.1783 361.902 95.7349C362.077 88.6398 365.033 81.9053 370.121 77.013C375.209 72.1207 382.012 69.4713 389.033 69.6476C396.054 69.824 402.718 72.8117 407.559 77.9534C412.4 83.0952 415.022 89.9698 414.847 97.0649V97.0649Z" fill="#DB8B8B"/>
<path id="Vector_54" opacity="0.1" d="M414.847 97.0649C414.85 99.5305 414.514 101.984 413.849 104.357C411.803 104.808 409.669 104.61 407.738 103.791C404.909 102.668 402.481 100.734 399.766 99.3427C392.119 95.4292 383.02 96.2012 374.549 97.4929C370.343 98.135 365.571 98.7312 362.265 96.0254C362.152 95.9348 362.043 95.8378 361.94 95.7349C362.115 88.6398 365.071 81.9053 370.159 77.013C375.247 72.1207 382.05 69.4713 389.071 69.6476C396.092 69.824 402.756 72.8117 407.597 77.9534C412.438 83.0952 415.06 89.9698 414.885 97.0649H414.847Z" fill="black"/>
<path id="Vector_55" opacity="0.05" d="M291.183 179.233C291.183 179.233 310.848 184.583 316.899 198.341C322.95 212.1 339.317 214.614 339.317 214.614" fill="black"/>
<path id="Vector_56" d="M365.306 481.915H319.924V496.438H365.306V481.915Z" fill="#535461"/>
<path id="Vector_57" opacity="0.1" d="M365.306 481.915H319.924V496.438H365.306V481.915Z" fill="#535461"/>
<path id="Vector_58" d="M326.739 454.964C330.801 452.671 334.363 450.378 334.673 449.431C334.673 449.431 344.922 460.361 354.051 463.754C357.121 464.9 360.06 466.376 362.817 468.157C366.433 470.45 371.591 473.148 376.273 473.148C376.273 473.148 386.862 482.321 366.44 483.849C346.019 485.378 298.368 480.028 298.368 480.028L301.394 460.919C310.233 461.443 319.035 459.375 326.739 454.964Z" fill="#ABB1D1"/>
</g>
<path id="hat" d="M342.751 80.5167C344.362 85.6225 352.1 85.7831 356.071 89.5437C358.136 91.5004 359.096 94.3896 361.365 96.1324C364.519 98.563 369.073 98.028 373.089 97.4471C381.174 96.2852 389.857 95.5897 397.149 99.1133C399.735 100.359 402.057 102.102 404.757 103.119C407.458 104.135 410.808 104.257 413.002 102.454C414.757 101.009 415.399 98.6318 416.988 97.0419C418.221 95.7884 419.938 95.0852 421.344 93.9845C424.43 91.6303 425.762 87.7933 426.639 84.1244C428.454 76.5726 428.976 68.4323 425.883 61.2703C422.789 54.1084 415.346 48.2764 407.223 48.6509C404.735 48.7656 402.307 49.4153 399.826 49.6904C393.359 50.3554 386.968 48.1617 380.478 47.7872C378.596 47.5557 376.686 47.819 374.934 48.5515C373.613 49.2936 372.474 50.3253 371.599 51.5707C368.628 55.5036 366.593 60.0755 365.654 64.9316C364.897 68.5928 364.86 71.9101 360.42 72.4757C355.375 73.1483 339.34 69.7164 342.751 80.5167Z" fill="#472727"/>
</g>
</g>
<defs>
<filter id="filter0_d" x="22.418" y="-0.00215698" width="781.568" height="607.997" filterUnits="userSpaceOnUse" color-interpolation-filters="sRGB">
<feFlood flood-opacity="0" result="BackgroundImageFix"/>
<feColorMatrix in="SourceAlpha" type="matrix" values="0 0 0 0 0 0 0 0 0 0 0 0 0 0 0 0 0 0 127 0"/>
<feOffset dy="4"/>
<feGaussianBlur stdDeviation="2"/>
<feColorMatrix type="matrix" values="0 0 0 0 0 0 0 0 0 0 0 0 0 0 0 0 0 0 0.25 0"/>
<feBlend mode="normal" in2="BackgroundImageFix" result="effect1_dropShadow"/>
<feBlend mode="normal" in="SourceGraphic" in2="effect1_dropShadow" result="shape"/>
</filter>
<linearGradient id="paint0_linear" x1="671.5" y1="72" x2="57.5988" y2="525.62" gradientUnits="userSpaceOnUse">
<stop stop-color="#FF0000"/>
<stop offset="1" stop-color="#0366FB"/>
</linearGradient>
<clipPath id="clip0">
<rect width="800" height="600" fill="white"/>
</clipPath>
</defs>
</svg>
